Coordinates
version=1
nRows=19
nColumns=36
inDegrees=yes

Units are S.I. units (second, meters, Newtons, ...)
If the header above contains a line with 'inDegrees', this indicates whether rotational values are in degrees (yes) or radians (no).

endheader
time	pelvis_tilt	pelvis_list	pelvis_rotation	pelvis_tx	pelvis_ty	pelvis_tz	hip_flexion_r	hip_adduction_r	hip_rotation_r	knee_angle_r	knee_angle_r_beta	ankle_angle_r	subtalar_angle_r	mtp_angle_r	hip_flexion_l	hip_adduction_l	hip_rotation_l	knee_angle_l	knee_angle_l_beta	ankle_angle_l	subtalar_angle_l	mtp_angle_l	lumbar_extension	lumbar_bending	lumbar_rotation	arm_flex_r	arm_add_r	arm_rot_r	elbow_flex_r	pro_sup_r	arm_flex_l	arm_add_l	arm_rot_l	elbow_flex_l	pro_sup_l
     14.88333330	     -4.83459747	     -0.43586581	      3.87491799	      0.84547651	      0.78876372	      0.72192620	     29.42616364	     -2.23463930	     -2.50382131	      1.49127378	      0.02602764	      3.89794919	     -4.54431690	     -7.49999987	    -10.44755123	      0.57842811	      8.17777378	     15.24686461	      0.26610799	     17.68249167	     -4.26066986	     -7.49999987	      2.85535096	      2.80238120	    -14.66979346	     -4.94316646	    -15.51737756	    -43.04925214	      3.57780108	    104.75064462	     17.55366714	    -17.69654258	      6.87941575	     30.54011846	     92.81442851
     14.90000000	     -4.64343561	     -1.33723639	      4.20436698	      0.84273672	      0.78668130	      0.72345111	     29.05746929	     -1.00488069	     -3.53898437	      3.91063175	      0.06825340	      2.41441986	     -5.17927103	     -7.49999987	    -11.10591592	     -0.68417093	      8.06261300	     17.30495268	      0.30202840	     16.09003253	     -4.58903399	     -7.49999987	      2.85360425	      3.89630051	    -14.95226462	     -4.91479031	    -16.06934761	    -45.27818947	      3.48313559	    105.33084666	     17.41391089	    -17.24054679	      7.05588211	     30.81010300	     93.93176441
     14.91666670	     -4.24708754	     -2.04649121	      4.21125705	      0.84190467	      0.78858187	      0.72428825	     28.72309249	      0.09013027	     -3.94306961	      6.77992570	      0.11833203	      1.02165120	     -5.93834357	     -7.49999987	    -11.47460129	     -1.65530037	      7.26663127	     19.92985171	      0.34784153	     13.78410278	     -4.82828023	     -7.49999987	      2.40006143	      4.92083031	    -15.01623680	     -4.27254792	    -16.54379016	    -45.77837111	      3.40070773	    101.65614148	     16.81238685	    -16.78747714	      6.93879045	     31.43100622	     91.14366290
     14.93333330	     -3.82320775	     -2.75304043	      4.02994996	      0.84287039	      0.79327651	      0.72458648	     28.32001078	      1.17477520	     -4.18017455	      9.61783196	      0.16786283	      0.04996626	     -6.46339712	     -7.49999987	    -11.05959580	     -2.65371530	      5.77143592	     23.69567845	      0.41356761	     10.54083658	     -4.86287394	     -7.49999987	      1.86557605	      5.95458272	    -14.39762098	     -4.06646226	    -17.03556183	    -46.02513993	      3.71338064	    101.54535695	     16.44046593	    -16.04528477	      6.98786038	     31.63486845	     91.26760220
     14.95000000	     -3.23247401	     -3.48738711	      3.57027631	      0.84319959	      0.79670098	      0.72650476	     27.55598680	      2.42158950	     -3.93242605	     12.13040474	      0.21171550	     -0.61543252	     -7.21194353	     -7.49999987	     -9.89666307	     -3.79389544	      3.84582403	     28.80910069	      0.50281366	      5.58421925	     -5.18531179	     -7.49999987	      1.01238099	      7.06237365	    -13.28653689	     -3.55407303	    -17.45373874	    -46.46592776	      3.85981629	    100.96894044	     16.09781406	    -15.14215942	      7.00006911	     31.79800237	     91.25170231
     14.96666670	     -2.48510136	     -4.18166743	      3.00701704	      0.84462171	      0.79897353	      0.73164139	     26.39433548	      3.72866412	     -3.58123377	     14.27738750	      0.24918742	     -0.69985528	     -7.81376057	     -7.49999987	     -8.31022417	     -5.15383702	      1.84976751	     34.60879062	      0.60403735	     -0.35580775	     -5.06512251	     -7.49999987	      0.02336958	      7.95275474	    -12.11368032	     -2.93205427	    -17.72974272	    -49.68343363	      3.98487180	    103.46778787	     15.89106658	    -14.27142022	      6.13437938	     30.99863680	     96.56444716
     14.98333330	     -1.76246498	     -5.01918144	      2.53864160	      0.85157399	      0.80211591	      0.73849515	     24.88420404	      5.19031110	     -3.42486361	     15.90781409	      0.27764373	     -0.21454318	     -8.01269642	     -7.49999987	     -6.62613161	     -6.83712695	      0.31167754	     40.22053815	      0.70198082	     -5.76658477	     -4.49293055	     -7.49999987	     -0.85495079	      8.93898265	    -10.99762082	     -2.37909600	    -17.76069564	    -49.44003584	      4.42154032	    103.37353741	     15.05035015	    -13.55811503	      6.18092452	     30.55041077	     96.44490847
     15.00000000	     -1.47999511	     -5.87317359	      2.37937826	      0.86194894	      0.80599367	      0.74410055	     23.39077616	      6.57456031	     -3.45636559	     16.92814630	      0.29545189	      0.69533989	     -7.99901842	     -7.49999987	     -4.47280484	     -8.54402446	     -0.45380559	     45.43196734	      0.79293742	    -10.27103622	     -3.78520991	     -7.49999987	     -0.75125462	      9.69763308	     -9.75781353	     -2.72908109	    -17.69234311	    -43.55403003	      4.58183682	    104.32512854	     14.39766945	    -12.51103646	      7.00700435	     28.07051112	     96.69554723
     15.01666670	     -1.55735235	     -6.65840629	      2.56731820	      0.86949986	      0.80838382	      0.74729883	     21.94008474	      7.76071202	     -3.71988281	     17.44320931	      0.30444143	      2.15865286	     -7.82520760	     -7.49999987	     -1.81334108	    -10.07610060	     -0.53340309	     50.33872254	      0.87857645	    -13.55527892	     -3.01228529	     -7.49999987	      0.00335414	     10.27959341	     -9.43229915	     -2.71623731	    -17.44528059	    -35.68977815	      4.76636171	    103.98384158	     12.78129857	    -11.81374990	      7.46489746	     26.18095105	     96.65572588
     15.03333330	     -2.00854874	     -7.19816929	      2.97309248	      0.87166990	      0.80907639	      0.74913716	     20.68792281	      8.57168863	     -4.06909370	     17.60701829	      0.30730044	      3.91540690	     -7.68260993	     -7.49999987	      1.44449907	    -11.05321050	     -0.00684022	     54.87257494	      0.95770710	    -15.50953769	     -2.68873070	     -7.49999987	      1.29593980	     10.48196927	     -9.48204865	     -2.59954400	    -17.00224249	    -28.50383366	      5.03552166	    102.28501338	     11.07918524	    -11.32364518	      7.93750069	     24.52453820	     96.50609305
     15.05000000	     -1.85928861	     -7.26166133	      3.26103795	      0.87049416	      0.81086827	      0.75106437	     18.49058169	      9.03786160	     -3.75064191	     17.25331500	      0.30112715	      5.66335189	     -7.99581806	     -7.49999987	      4.01263236	    -11.29790204	      0.41978867	     58.48233147	      1.02070924	    -16.01469202	     -2.93239193	     -7.49999987	      1.48230614	     10.07196811	     -8.92838014	     -2.40325483	    -16.11194644	    -28.28646947	      5.86817246	    101.97177404	      9.78393354	    -11.15424143	      8.04079698	     24.02672333	     96.32090991
     15.06666670	     -3.02853883	     -7.27889368	      3.66860521	      0.87000589	      0.81182707	      0.75204916	     17.57460838	      9.14836335	     -4.07160606	     16.69828073	      0.29143998	      7.21153755	     -7.91390729	     -7.49999987	      8.54618040	    -11.10380412	      1.21433895	     61.77579296	      1.07819099	    -14.26455777	     -3.71805470	     -7.49999987	      3.76678194	      9.68895884	     -9.17991870	     -2.29112327	    -15.83819037	    -20.42137075	      6.05334762	    100.17378044	      8.61566515	    -11.01834905	     10.15385236	     21.48916446	     96.47061954
     15.08333330	     -3.41075973	     -6.84969400	      3.57232469	      0.87170452	      0.81407828	      0.75374479	     15.45132551	      9.05448436	     -3.50331849	     15.65336013	      0.27320267	      8.52066370	     -7.90147758	     -7.49999987	     12.07980387	    -10.41402869	      1.16158574	     63.65436458	      1.11097825	    -10.84538315	     -5.12912920	     -7.49999987	      4.57125030	      8.93131738	     -8.32239115	     -1.93174373	    -15.19466613	    -18.56032354	      6.45314494	     96.76025701	      7.50653381	    -10.84549960	     10.71574489	     19.83540274	     93.74323581
     15.10000000	     -3.65025809	     -6.22871570	      3.23345115	      0.87404519	      0.81628903	      0.75633149	     12.99193785	      8.79706375	     -2.74030158	     14.28925209	      0.24939450	      9.60462919	     -7.79276214	     -7.49999987	     15.39490029	     -9.54469060	      0.67781403	     64.33679521	      1.12288891	     -6.38475824	     -6.61852443	     -7.49999987	      5.07099311	      8.08237301	     -7.58884152	     -0.91415243	    -14.53094945	    -16.94622793	      6.75903540	     93.31651245	      5.97710854	    -10.89738052	     11.17433827	     18.46137472	     90.73823029
     15.11666670	     -3.85228102	     -5.55565710	      2.74426387	      0.87328066	      0.81748903	      0.75908823	     10.52069125	      8.44524644	     -2.00389582	     12.70727222	      0.22178374	     10.24227361	     -7.60108489	     -7.49999987	     18.58213808	     -8.62904300	      0.07007329	     64.02865476	      1.11751084	     -2.72197495	     -8.37919920	     -7.49999987	      5.20727531	      7.22536421	     -5.98911745	      0.07897141	    -14.00645801	    -16.49093362	      7.19310208	     93.38620918	      4.67817328	    -10.98961209	     11.35433560	     17.80116550	     90.78699838
     15.13333330	     -3.64630320	     -4.62010194	      1.82676262	      0.86758400	      0.81744453	      0.76078246	      7.80719385	      7.82305574	     -0.87169690	     11.13725555	      0.19438178	     10.91770720	     -7.22310014	     -7.49999987	     20.96816131	     -7.77563207	     -1.24865430	     62.72423275	      1.09474438	      0.50780340	     -8.52757458	     -7.49999987	      4.67542488	      6.11769772	     -3.57573984	      0.46307138	    -14.19598195	     -6.22466275	      9.30147075	     93.57692759	      4.56257202	    -11.35937518	     15.19267803	     15.64869600	     94.05796239
     15.15000000	     -3.47783105	     -3.81774020	      0.99524163	      0.85710930	      0.81608079	      0.75886165	      5.56982428	      7.16474073	     -0.04628991	      9.90741009	      0.17291693	     11.42432508	     -6.88070877	     -7.49999987	     23.38201075	     -6.95546625	     -2.34144513	     60.74136635	      1.06013684	      2.58907097	     -9.11347301	     -7.49999987	      3.82172294	      5.26889526	     -1.51451773	      1.74484287	    -14.10426410	     -5.19944330	     11.22646701	     92.35754527	      4.05234981	    -11.45786844	     15.00924037	     15.09761052	     93.70124156
     15.16666670	     -3.35063162	     -3.00226231	      0.22727098	      0.84533253	      0.81558381	      0.75446587	      3.90698832	      6.31869446	      0.13941985	      9.34015300	      0.16301642	     12.31982354	     -5.99174197	     -7.49999987	     25.54614115	     -6.01273932	     -3.48197135	     57.70705030	      1.00717803	      4.09651238	     -9.76420475	     -7.49999987	      2.76410273	      4.48179944	      0.12222699	      3.52118274	    -14.20670030	     -4.43904024	     13.35656002	     91.21453398	      3.53939534	    -11.64689559	     15.00633346	     14.99510134	     93.01602941
     15.18333330	     -3.23895340	     -2.32421714	     -0.48772433	      0.83660895	      0.81664479	      0.75089810	      2.55609148	      5.57107297	      0.46142940	      9.09097957	      0.15866753	     12.71732372	     -5.89796583	     -7.49999987	     27.37804142	     -5.15706041	     -4.62629856	     53.65991867	      0.93654226	      5.43988025	     -9.95781696	     -7.49999987	      1.55906779	      3.83065849	      2.14618251	      5.06331204	    -14.97377906	     -1.28172595	     16.32508753	     88.43389398	      3.59921168	    -11.66470797	     15.36874349	     14.39253797	     91.97914011
